<?xml version="1.0" encoding="UTF-8" standalone="no"?>
<!-- Created with Inkscape (http://www.inkscape.org/) -->

<svg
   width="210mm"
   height="297mm"
   viewBox="0 0 210 297"
   version="1.1"
   id="svg1"
   xml:space="preserve"
   inkscape:version="1.4 (86a8ad7, 2024-10-11)"
   sodipodi:docname="logo_final.svg"
   xmlns:inkscape="http://www.inkscape.org/namespaces/inkscape"
   xmlns:sodipodi="http://sodipodi.sourceforge.net/DTD/sodipodi-0.dtd"
   xmlns="http://www.w3.org/2000/svg"
   xmlns:svg="http://www.w3.org/2000/svg"><sodipodi:namedview
     id="namedview1"
     pagecolor="#505050"
     bordercolor="#eeeeee"
     borderopacity="1"
     inkscape:showpageshadow="0"
     inkscape:pageopacity="0"
     inkscape:pagecheckerboard="0"
     inkscape:deskcolor="#505050"
     inkscape:document-units="mm"
     inkscape:zoom="0.19041982"
     inkscape:cx="1150.0903"
     inkscape:cy="480.5172"
     inkscape:window-width="1920"
     inkscape:window-height="1057"
     inkscape:window-x="1912"
     inkscape:window-y="-8"
     inkscape:window-maximized="1"
     inkscape:current-layer="layer1" /><defs
     id="defs1"><inkscape:path-effect
       effect="powerclip"
       message=""
       id="path-effect17"
       is_visible="true"
       lpeversion="1"
       inverse="true"
       flatten="false"
       hide_clip="false" /><inkscape:path-effect
       effect="powerclip"
       message=""
       id="path-effect16"
       is_visible="true"
       lpeversion="1"
       inverse="true"
       flatten="false"
       hide_clip="false" /><clipPath
       clipPathUnits="userSpaceOnUse"
       id="clipPath15"><ellipse
         style="display:none;opacity:1;fill:#000000;fill-opacity:1;fill-rule:nonzero;stroke:#f1e999;stroke-width:0;stroke-linecap:butt;stroke-linejoin:miter;stroke-miterlimit:3.3;stroke-dasharray:none;stroke-opacity:1;paint-order:stroke fill markers"
         id="ellipse16"
         cx="120.10262"
         cy="139.94604"
         rx="5.2973685"
         ry="5.5144734"
         d="m 125.39999,139.94604 a 5.2973685,5.5144734 0 0 1 -5.29737,5.51448 5.2973685,5.5144734 0 0 1 -5.29737,-5.51448 5.2973685,5.5144734 0 0 1 5.29737,-5.51447 5.2973685,5.5144734 0 0 1 5.29737,5.51447 z" /><path
         id="lpe_path-effect16"
         style="opacity:1;fill:#000000;fill-opacity:1;fill-rule:nonzero;stroke:#f1e999;stroke-width:0;stroke-linecap:butt;stroke-linejoin:miter;stroke-miterlimit:3.3;stroke-dasharray:none;stroke-opacity:1;paint-order:stroke fill markers"
         class="powerclip"
         d="m 85.513388,128.67045 h 45.638202 v 45.68906 H 85.513388 Z m 39.886602,11.27559 a 5.2973685,5.5144734 0 0 0 -5.29737,-5.51447 5.2973685,5.5144734 0 0 0 -5.29737,5.51447 5.2973685,5.5144734 0 0 0 5.29737,5.51448 5.2973685,5.5144734 0 0 0 5.29737,-5.51448 z" /></clipPath><clipPath
       clipPathUnits="userSpaceOnUse"
       id="clipPath16"><ellipse
         style="display:none;opacity:1;fill:#000000;fill-opacity:1;fill-rule:nonzero;stroke:#f1e999;stroke-width:0;stroke-linecap:butt;stroke-linejoin:miter;stroke-miterlimit:3.3;stroke-dasharray:none;stroke-opacity:1;paint-order:stroke fill markers"
         id="ellipse17"
         cx="120.10262"
         cy="139.94604"
         rx="5.2973685"
         ry="5.5144734"
         d="m 125.39999,139.94604 a 5.2973685,5.5144734 0 0 1 -5.29737,5.51448 5.2973685,5.5144734 0 0 1 -5.29737,-5.51448 5.2973685,5.5144734 0 0 1 5.29737,-5.51447 5.2973685,5.5144734 0 0 1 5.29737,5.51447 z" /><path
         id="lpe_path-effect17"
         style="opacity:1;fill:#000000;fill-opacity:1;fill-rule:nonzero;stroke:#f1e999;stroke-width:0;stroke-linecap:butt;stroke-linejoin:miter;stroke-miterlimit:3.3;stroke-dasharray:none;stroke-opacity:1;paint-order:stroke fill markers"
         class="powerclip"
         d="m 108.24059,106.11693 h 45.68906 v 45.6382 h -45.68906 z m 17.1594,33.82911 a 5.2973685,5.5144734 0 0 0 -5.29737,-5.51447 5.2973685,5.5144734 0 0 0 -5.29737,5.51447 5.2973685,5.5144734 0 0 0 5.29737,5.51448 5.2973685,5.5144734 0 0 0 5.29737,-5.51448 z" /></clipPath></defs><g
     inkscape:label="Capa 1"
     inkscape:groupmode="layer"
     id="layer1"><circle
       style="opacity:1;fill:#ff5555;fill-opacity:0;stroke:#30aeb6;stroke-width:10.109;stroke-dasharray:none;stroke-opacity:1"
       id="path3"
       cx="120.18948"
       cy="139.98947"
       r="56.119194" /><path
       style="opacity:1;fill:#30aeb6;fill-opacity:1;stroke:#f1e999;stroke-width:0;stroke-dasharray:none;stroke-opacity:1"
       d="m 110.86442,133.67045 15.28717,15.35293 -35.638202,20.33613 z"
       id="path8"
       sodipodi:nodetypes="cccc"
       clip-path="url(#clipPath15)"
       inkscape:path-effect="#path-effect16"
       inkscape:original-d="m 110.86442,133.67045 15.28717,15.35293 -35.638202,20.33613 z" /><path
       style="opacity:0.98051;fill:#30aeb6;fill-opacity:1;stroke:#f1e999;stroke-width:0;stroke-dasharray:none;stroke-opacity:1"
       d="m 113.24059,131.46796 15.35293,15.28717 20.33613,-35.6382 z"
       id="path9"
       sodipodi:nodetypes="cccc"
       clip-path="url(#clipPath16)"
       inkscape:path-effect="#path-effect17"
       inkscape:original-d="m 113.24059,131.46796 15.35293,15.28717 20.33613,-35.6382 z" /></g></svg>
